<svg width="5195" height="2861" viewBox="0 0 5195 2861" fill="none" xmlns="http://www.w3.org/2000/svg">
<g id="shema">
<path id="Vector" d="M2832.01 2597H2236.01C2229.6 2597 2224.01 2591.41 2224.01 2585V2115C2224.01 2108.58 2229.6 2103 2236.01 2103H2832.01C2838.42 2103 2844.01 2108.58 2844.01 2115V2585C2844.01 2591.41 2838.42 2597 2832.01 2597Z" fill="white"/>
<path id="Vector_2" d="M3431.01 2597H2875.01C2868.59 2597 2863.01 2591.41 2863.01 2585V2115C2863.01 2108.58 2868.59 2103 2875.01 2103H3431.01C3437.42 2103 3443.01 2108.58 3443.01 2115V2585C3443.01 2591.41 3437.42 2597 3431.01 2597Z" fill="white"/>
<path id="Vector_3" d="M4096.01 2594H3474.01C3467.59 2594 3462.01 2588.42 3462.01 2582V2113C3462.01 2106.58 3467.59 2101 3474.01 2101H3971.01C3977.42 2101 3983.01 2106.58 3983.01 2113L4108.01 2582C4108.01 2588.42 4102.42 2594 4096.01 2594Z" fill="white"/>
<path id="Vector_4" d="M4754.22 1955.67L4139.93 2557.97C4135.14 2562.01 4127.24 2562.01 4122.92 2557.97L4001.65 2101.46C4000.55 2097.3 4001.75 2092.87 4004.81 2089.84L4282.07 1815.47C4285.12 1812.45 4289.55 1811.29 4293.69 1812.43L4754.22 1938.66C4758.26 1942.44 4758.25 1950.35 4754.22 1955.67Z" fill="white"/>
<path id="Vector_5" d="M330.027 912.332L944.317 310.027C949.105 305.993 957.009 305.989 961.325 310.027L1082.6 766.538C1083.7 770.697 1082.5 775.129 1079.44 778.155L802.177 1052.53C799.127 1055.55 794.698 1056.71 790.559 1055.57L330.027 929.341C325.989 925.558 325.993 917.647 330.027 912.332Z" fill="white"/>
<g id="Sector8">
<path id="Vector_6" d="M4141.95 319.002L4755.25 924.319C4759.25 929.036 4759.25 936.939 4755.25 941.328L4294.78 1063.6C4290.6 1064.71 4286.15 1063.48 4283.13 1060.39L4007.68 779.135C4004.71 776.101 4003.56 771.725 4004.66 767.624L4124.94 319.002C4128.67 314.997 4136.58 315.002 4141.95 319.002Z" fill="white"/>
<path id="Vector_7" d="M934.297 2565L321.002 1959.68C317.002 1954.96 316.997 1947.06 321.002 1942.67L781.464 1820.4C785.644 1819.29 790.097 1820.52 793.123 1823.61L1068.57 2104.87C1071.54 2107.9 1072.69 2112.28 1071.59 2116.38L951.305 2565C947.576 2569 939.664 2569 934.297 2565Z" fill="white"/>
<path id="Vector_8" d="M4758.25 966.003V1906C4758.25 1912.41 4752.67 1918 4746.25 1918L4298.25 1796.25C4291.83 1796.25 4286.25 1790.66 4286.25 1784.25V1085.04C4286.25 1078.63 4291.83 1073.04 4298.25 1073.04L4746.25 954C4752.67 954 4758.25 959.59 4758.25 966.003Z" fill="white"/>
</g>
<path id="Vector_9" d="M983.018 2599H1605.02C1611.43 2599 1617.02 2593.42 1617.02 2587V2118C1617.02 2111.58 1611.43 2106 1605.02 2106H1108.02C1101.6 2106 1096.02 2111.58 1096.02 2118L971.018 2587C971.018 2593.42 976.605 2599 983.018 2599Z" fill="white"/>
<path id="Vector_10" d="M1648.02 2598H2193.02C2199.43 2598 2205.02 2592.41 2205.02 2586V2116C2205.02 2109.58 2199.43 2104 2193.02 2104H1648.02C1641.61 2104 1636.02 2109.58 1636.02 2116V2586C1636.02 2592.41 1641.61 2598 1648.02 2598Z" fill="white"/>
<path id="Vector_11" d="M3513.01 275.999H4104.01C4110.42 275.999 4116.01 281.582 4116.01 287.999L3989.01 758.999C3989.01 765.416 3983.42 770.999 3977.01 770.999H3513.01C3506.59 770.999 3501.01 765.416 3501.01 758.999V287.999C3501.01 281.582 3506.59 275.999 3513.01 275.999Z" fill="white"/>
<path id="Vector_12" d="M2914.01 277.999H3470.01C3476.42 277.999 3482.01 283.582 3482.01 289.999V760.999C3482.01 767.416 3476.42 772.999 3470.01 772.999H2914.01C2907.59 772.999 2902.01 767.416 2902.01 760.999V289.999C2902.01 283.582 2907.59 277.999 2914.01 277.999Z" fill="white"/>
<path id="Vector_13" d="M2224.01 280.999H2871.01C2877.42 280.999 2883.01 286.584 2883.01 292.999V762.999C2883.01 769.414 2877.42 774.999 2871.01 774.999H2224.01C2217.6 774.999 2212.01 769.414 2212.01 762.999V292.999C2212.01 286.584 2217.6 280.999 2224.01 280.999Z" fill="white"/>
<path id="Vector_14" d="M2181.02 275.999H1625.02C1618.61 275.999 1613.02 281.582 1613.02 287.999V758.999C1613.02 765.416 1618.61 770.999 1625.02 770.999H2181.02C2187.43 770.999 2193.02 765.416 2193.02 758.999V287.999C2193.02 281.582 2187.43 275.999 2181.02 275.999Z" fill="white"/>
<path id="Vector_15" d="M1582.02 275.999H991.018C984.605 275.999 979.018 281.582 979.018 287.999L1106.02 758.999C1106.02 765.416 1111.6 770.999 1118.02 770.999H1582.02C1588.43 770.999 1594.02 765.416 1594.02 758.999V287.999C1594.02 281.582 1588.43 275.999 1582.02 275.999Z" fill="white"/>
<path id="Vector_16" d="M265.817 1952.19L565.097 2250.84C569.26 2255 570.115 2261.43 567.183 2266.53L446.237 2476.81C442.658 2483.04 434.71 2485.18 428.487 2481.6C427.523 2481.05 426.635 2480.37 425.844 2479.59L3.8757 2063.81C1.39611 2061.36 0 2058.03 0 2054.55V833.786C0 830.304 1.39611 826.969 3.8757 824.526L425.844 408.74C430.958 403.701 439.189 403.762 444.228 408.876C445.008 409.667 445.683 410.555 446.237 411.519L567.183 621.807C570.115 626.905 569.26 633.336 565.097 637.49L265.817 936.141C263.373 938.58 262 941.891 262 945.343V1942.99C262 1946.44 263.373 1949.75 265.817 1952.19Z" fill="white"/>
<path id="Vector 3" d="M4803.16 924.08L4256 376.983L4435.76 1L5193.76 758.908V2123.75L4458 2859.42L4284.76 2473.65L4803.16 1955.32V924.08Z" fill="white" stroke="black"/>
</g>
</svg>
